<svg xmlns="http://www.w3.org/2000/svg" version="1.1" xmlns:xlink="http://www.w3.org/1999/xlink" viewBox="0 0 200 200" width="200" height="200"><metadata><rdf:RDF xmlns:rdf="http://www.w3.org/1999/02/22-rdf-syntax-ns#" xmlns:dc="http://purl.org/dc/elements/1.1/"><rdf:Description><dc:creator>RealFaviconGenerator</dc:creator><dc:source>https://realfavicongenerator.net</dc:source></rdf:Description></rdf:RDF></metadata><rect width="200" height="200" fill="url('#gradient')"></rect><defs><linearGradient id="gradient" gradientTransform="rotate(0 0.5 0.5)"><stop offset="0%" stop-color="#eb2e40"></stop><stop offset="100%" stop-color="#eb2e40"></stop></linearGradient></defs><g><g fill="#f4f2f2" transform="matrix(1.5250198570293885,0,0,1.5250198570293885,23.3638457465115,108.26552954015511)" stroke="#5ed03e" stroke-width="0"><path d="M9.89-8.57L9.89-6.03L4.50-6.03L4.50-2.64L10.87-2.64L10.87 0L1.07 0L1.07-14.22L10.89-14.22L10.89-11.57L4.50-11.57L4.50-8.57L9.89-8.57ZM11.51-5.36L11.51-5.36Q11.51-7.87 12.60-9.32Q13.68-10.76 15.63-10.76L15.63-10.76Q17.04-10.76 18.01-9.65L18.01-9.65L18.01-15L21.31-15L21.31 0L18.35 0L18.18-1.13Q17.17 0.20 15.61 0.20L15.61 0.20Q13.72 0.20 12.62-1.25Q11.51-2.70 11.51-5.36ZM14.81-5.76L14.80-5.16Q14.80-2.34 16.45-2.34L16.45-2.34Q17.54-2.34 18.01-3.26L18.01-3.26L18.01-7.29Q17.56-8.22 16.46-8.22L16.46-8.22Q14.94-8.22 14.81-5.76L14.81-5.76ZM26.65-10.57L26.65 0L23.35 0L23.35-10.57L26.65-10.57ZM23.15-13.29L23.15-13.29Q23.15-13.99 23.66-14.44Q24.17-14.89 24.98-14.89Q25.79-14.89 26.30-14.44Q26.81-13.99 26.81-13.29Q26.81-12.59 26.30-12.14Q25.79-11.69 24.98-11.69Q24.17-11.69 23.66-12.14Q23.15-12.59 23.15-13.29ZM29.22-13.19L32.51-13.19L32.51-10.57L34.25-10.57L34.25-8.28L32.51-8.28L32.51-3.45Q32.51-2.85 32.72-2.62Q32.94-2.38 33.57-2.38L33.57-2.38Q34.06-2.38 34.39-2.44L34.39-2.44L34.39-0.09Q33.51 0.20 32.54 0.20L32.54 0.20Q30.84 0.20 30.03-0.61Q29.22-1.41 29.22-3.04L29.22-3.04L29.22-8.28L27.87-8.28L27.87-10.57L29.22-10.57L29.22-13.19ZM39.01-10.57L39.01 0L35.71 0L35.71-10.57L39.01-10.57ZM35.52-13.29L35.52-13.29Q35.52-13.99 36.03-14.44Q36.53-14.89 37.34-14.89Q38.15-14.89 38.66-14.44Q39.17-13.99 39.17-13.29Q39.17-12.59 38.66-12.14Q38.15-11.69 37.34-11.69Q36.53-11.69 36.03-12.14Q35.52-12.59 35.52-13.29ZM40.98-10.57L44.06-10.57L44.17-9.33Q45.26-10.76 47.19-10.76L47.19-10.76Q48.84-10.76 49.65-9.78Q50.47-8.79 50.50-6.81L50.50-6.81L50.50 0L47.20 0L47.20-6.67Q47.20-7.47 46.88-7.85Q46.55-8.22 45.70-8.22L45.70-8.22Q44.74-8.22 44.27-7.46L44.27-7.46L44.27 0L40.98 0L40.98-10.57ZM51.93-5.24L51.93-5.36Q51.93-6.96 52.46-8.19Q52.99-9.42 53.97-10.09Q54.96-10.76 56.27-10.76L56.27-10.76Q57.92-10.76 58.85-9.65L58.85-9.65L58.96-10.57L61.95-10.57L61.95-0.40Q61.95 1.00 61.30 2.03Q60.65 3.06 59.42 3.61Q58.19 4.16 56.57 4.16L56.57 4.16Q55.41 4.16 54.32 3.72Q53.23 3.28 52.66 2.58L52.66 2.58L54.03 0.64Q54.95 1.73 56.46 1.73L56.46 1.73Q58.64 1.73 58.64-0.52L58.64-0.52L58.64-0.85Q57.70 0.20 56.25 0.20L56.25 0.20Q54.32 0.20 53.13-1.28Q51.93-2.76 51.93-5.24L51.93-5.24ZM55.23-5.16L55.23-5.16Q55.23-3.86 55.72-3.10Q56.21-2.34 57.09-2.34L57.09-2.34Q58.15-2.34 58.64-3.06L58.64-3.06L58.64-7.50Q58.16-8.22 57.11-8.22L57.11-8.22Q56.23-8.22 55.73-7.44Q55.23-6.65 55.23-5.16ZM69.59-4.82L67.40-4.82L67.40 0L63.97 0L63.97-14.22L69.65-14.22Q71.28-14.22 72.53-13.62Q73.79-13.02 74.48-11.91Q75.17-10.80 75.17-9.39L75.17-9.39Q75.17-7.31 73.68-6.07Q72.19-4.82 69.59-4.82L69.59-4.82ZM67.40-11.57L67.40-7.47L69.65-7.47Q70.64-7.47 71.17-7.97Q71.69-8.47 71.69-9.38L71.69-9.38Q71.69-10.37 71.15-10.97Q70.62-11.56 69.69-11.57L69.69-11.57L67.40-11.57ZM81.67 0L76.99 0L76.99-14.22L81.57-14.22Q83.46-14.22 84.96-13.36Q86.46-12.51 87.31-10.95Q88.15-9.39 88.16-7.46L88.16-7.46L88.16-6.81Q88.16-4.85 87.34-3.31Q86.51-1.76 85.01-0.88Q83.52-0.01 81.67 0L81.67 0ZM81.57-11.57L80.42-11.57L80.42-2.64L81.61-2.64Q83.09-2.64 83.88-3.69Q84.67-4.74 84.67-6.81L84.67-6.81L84.67-7.42Q84.67-9.48 83.88-10.53Q83.09-11.57 81.57-11.57L81.57-11.57ZM98.88-8.30L98.88-5.66L93.35-5.66L93.35 0L89.92 0L89.92-14.22L99.43-14.22L99.43-11.57L93.35-11.57L93.35-8.30L98.88-8.30Z"></path></g></g></svg>